<mxfile host="app.diagrams.net" modified="2024-07-17T03:08:50.543Z" agent="Mozilla/5.0 (X11; Ubuntu; Linux x86_64; rv:127.0) Gecko/20100101 Firefox/127.0" version="24.7.0" etag="9KbmHOUg_MMhzK1Y4dZt" type="github">
  <diagram name="Page-1" id="_l1z8W1t1sNjuMhaoYt0">
    <mxGraphModel>
      <root>
        <mxCell id="0" />
        <mxCell id="1" parent="0" />
      </root>
    </mxGraphModel>
  </diagram>
</mxfile>
